<svg width="69" height="59" viewBox="0 0 69 59" fill="none" xmlns="http://www.w3.org/2000/svg">
<path d="M52.75 56.375C52.75 50.3689 44.6352 45.5 34.625 45.5C24.6148 45.5 16.5 50.3689 16.5 56.375M67.25 45.5014C67.25 41.0419 62.7764 37.2094 56.375 35.5312M2 45.5014C2 41.0419 6.47359 37.2094 12.875 35.5312M56.375 20.9809C58.5998 18.9896 60 16.0958 60 12.875C60 6.8689 55.1311 2 49.125 2C46.3397 2 43.799 3.04709 41.875 4.76911M12.875 20.9809C10.6502 18.9896 9.25 16.0958 9.25 12.875C9.25 6.8689 14.1189 2 20.125 2C22.9103 2 25.451 3.04709 27.375 4.76911M34.625 34.625C28.6189 34.625 23.75 29.7561 23.75 23.75C23.75 17.7439 28.6189 12.875 34.625 12.875C40.6311 12.875 45.5 17.7439 45.5 23.75C45.5 29.7561 40.6311 34.625 34.625 34.625Z" stroke="#18BCC7" stroke-width="3.5" stroke-linecap="round" stroke-linejoin="round"/>
</svg>
