<svg width="714" height="644" viewBox="0 0 714 644" fill="none" xmlns="http://www.w3.org/2000/svg">
<rect width="111.101" height="208.364" transform="matrix(-0.995654 0.274389 -0.251171 -0.932687 510.677 496.625)" fill="#79C9F7" fill-opacity="0.04"/>
<ellipse cx="44.0826" cy="46.2847" rx="44.0826" ry="46.2847" transform="matrix(-0.994909 0.276882 -0.249293 -0.933158 521.29 575.18)" fill="#79C9F7" fill-opacity="0.04"/>
<rect width="110.656" height="207.586" transform="matrix(-0.90943 0.487279 0.451768 0.852736 353.878 104.465)" fill="#C0CFE0" fill-opacity="0.04"/>
<ellipse cx="44.0552" cy="45.9935" rx="44.0552" ry="45.9935" transform="matrix(-0.90864 0.488556 0.450802 0.853183 305.993 40.6292)" fill="#C0CFE0" fill-opacity="0.04"/>
<rect width="116.692" height="199.162" transform="matrix(-0.38777 0.919328 0.925922 0.375514 220.408 189.583)" fill="#C3DFF1" fill-opacity="0.04"/>
<ellipse cx="46.1607" cy="44.0025" rx="46.1607" ry="44.0025" transform="matrix(-0.390516 0.918387 0.927022 0.373261 143.303 169.266)" fill="#C3DFF1" fill-opacity="0.04"/>
<rect width="114.097" height="197.74" transform="matrix(0.449219 0.854408 0.908666 -0.489744 167.26 352.287)" fill="#A1D4F7" fill-opacity="0.04"/>
<ellipse cx="45.8306" cy="44.161" rx="45.8306" ry="44.161" transform="matrix(0.449693 0.854184 0.90899 -0.489207 103.389 398.936)" fill="#A1D4F7" fill-opacity="0.04"/>
<rect width="109.479" height="205.772" transform="matrix(-0.928014 -0.371277 0.390576 -0.918462 354.165 528.004)" fill="#90C8E1" fill-opacity="0.04"/>
<ellipse cx="44.037" cy="46.1221" rx="44.037" ry="46.1221" transform="matrix(-0.927198 -0.37297 0.389621 -0.918793 313.965 595.942)" fill="#90C8E1" fill-opacity="0.04"/>
<rect width="116.437" height="199.315" transform="matrix(-0.387917 0.919459 -0.925619 -0.376326 574.047 383.03)" fill="#6BBAE7" fill-opacity="0.04"/>
<ellipse cx="46.0882" cy="44.0508" rx="46.0882" ry="44.0508" transform="matrix(-0.390508 0.918559 -0.926657 -0.374184 641.956 425.738)" fill="#6BBAE7" fill-opacity="0.04"/>
<rect width="115.146" height="197.976" transform="matrix(0.254525 0.939223 -0.987388 0.276252 544.254 232.391)" fill="#4AB0E4" fill-opacity="0.04"/>
<ellipse cx="46.0411" cy="44.1487" rx="46.0411" ry="44.1487" transform="matrix(0.255589 0.938955 -0.98774 0.275082 622.531 221.833)" fill="#4AB0E4" fill-opacity="0.04"/>
<rect width="109.642" height="205.513" transform="matrix(0.927216 0.373125 -0.39124 0.918424 395.665 149.445)" fill="#00A8EF" fill-opacity="0.1"/>
<ellipse cx="44.0892" cy="46.0394" rx="44.0892" ry="46.0394" transform="matrix(0.92647 0.374679 -0.390327 0.918745 436.18 82.9397)" fill="#00A8EF" fill-opacity="0.1"/>
</svg>
