<svg width="69" height="69" viewBox="0 0 69 69" fill="none" xmlns="http://www.w3.org/2000/svg">
<path d="M45.3748 27.2493L30.8748 41.7493L23.6248 34.4993M39.0169 3.53813L43.4429 7.30993C44.558 8.26018 45.9425 8.83467 47.4029 8.95121L53.1994 9.41317C56.6074 9.68513 59.3144 12.3904 59.5863 15.7984L60.0472 21.5959C60.1637 23.0563 60.7403 24.4428 61.6905 25.5578L65.4606 29.9826C67.6781 32.5847 67.6785 36.4123 65.461 39.0144L61.6909 43.4399C60.7406 44.5549 60.1648 45.942 60.0483 47.4024L59.5845 53.1989C59.3126 56.6069 56.6098 59.3138 53.2019 59.5858L47.4033 60.0485C45.9429 60.165 44.557 60.738 43.442 61.6882L39.0169 65.4601C36.4148 67.6776 32.5848 67.6781 29.9827 65.4606L25.5577 61.6886C24.4426 60.7383 23.0568 60.1643 21.5964 60.0478L15.7978 59.5858C12.3898 59.3138 9.68707 56.6075 9.41511 53.1996L8.95136 47.4028C8.83482 45.9424 8.25904 44.5565 7.30879 43.4414L3.53865 39.0146C1.32115 36.4125 1.32011 32.5861 3.53761 29.984L7.31114 25.5572C8.26139 24.4421 8.83165 23.0563 8.94819 21.5959L9.41192 15.7991C9.68388 12.3911 12.3944 9.68478 15.8024 9.41282L21.5946 8.95085C23.055 8.8343 24.4415 8.26029 25.5566 7.31004L29.9831 3.53813C32.5852 1.32062 36.4148 1.32062 39.0169 3.53813Z" stroke="#18BCC7" stroke-width="3.5" stroke-linecap="round" stroke-linejoin="round"/>
</svg>
