<?xml version="1.0" encoding="utf-8"?>
<!-- Generator: Adobe Illustrator 26.4.1, SVG Export Plug-In . SVG Version: 6.00 Build 0)  -->
<svg version="1.0" id="katman_1" xmlns="http://www.w3.org/2000/svg" xmlns:xlink="http://www.w3.org/1999/xlink" x="0px" y="0px"
	 viewBox="0 0 841.89 595.28" style="enable-background:new 0 0 841.89 595.28;" xml:space="preserve">
<style type="text/css">
	.st0{clip-path:url(#SVGID_00000170996555909644910310000018283242533666815411_);}
	.st1{fill:#010202;}
	.st2{fill:#E73B1F;}
	.st3{fill:#3FAB35;}
	.st4{fill:#4595D1;}
</style>
<g>
	<defs>
		<rect id="SVGID_1_" x="107.7" y="248.72" width="626.01" height="97.14"/>
	</defs>
	<clipPath id="SVGID_00000047036788229670099680000016739021809251050929_">
		<use xlink:href="#SVGID_1_"  style="overflow:visible;"/>
	</clipPath>
	<g style="clip-path:url(#SVGID_00000047036788229670099680000016739021809251050929_);">
		<path class="st1" d="M271.33,258.8c0,5.77-4.34,10.01-10.45,10.01c-5.87,0-10.47-4.22-10.47-9.99c0-5.77,4.58-9.88,10.45-9.9
			C266.97,248.92,271.33,253.03,271.33,258.8z M252.43,278.81h16.81l0.05,64.7h-16.81L252.43,278.81z"/>
		<path class="st1" d="M347.11,302.86l0.03,40.59h-16.81l-0.03-36.93c0-8.46-3.18-13.17-12.12-13.17c-9.51,0-14.56,5.55-14.56,16.13
			l0.03,34h-16.81l-0.05-64.7h16.81v8.81c4.71-6.6,11.16-10.24,20.1-10.26c14.57,0,23.39,9.63,23.4,25.51"/>
		<path class="st1" d="M438.02,302.19c0.02,23.54-18.07,41.19-42.04,41.2h-29.73l-0.06-82.33l29.73-0.03
			c23.97-0.02,42.09,17.49,42.1,41.14V302.19z M421.21,302.18c0-14.83-10.48-25.16-25.29-25.15h-12.94l0.03,50.37h12.94
			c14.81-0.02,25.26-10.38,25.25-25.21"/>
		<path class="st1" d="M493.04,277.44v17.3c-1.28-0.13-2.22-0.24-4.09-0.24c-10.7,0-19.86,4.73-19.85,20.01v28.82h-16.78l-0.05-64.7
			h16.81v11.28c4-8.48,11.05-12.72,20.21-12.73c1.53,0,2.69,0.13,3.76,0.24"/>
		<path class="st1" d="M527.1,258.6c0,5.77-4.35,10.01-10.45,10.01c-5.87,0-10.47-4.22-10.47-9.99c-0.02-5.77,4.57-9.9,10.43-9.9
			c6.11,0,10.47,4.11,10.47,9.88H527.1z M508.19,278.61H525l0.05,64.7h-16.81L508.19,278.61z"/>
		<path class="st1" d="M602.99,278.53l-22.14,64.73l-20.12,0.02l-22.26-64.68l17.87-0.02l14.37,46.47l14.42-46.5L602.99,278.53z"/>
		<path class="st1" d="M677.48,315.18l-49.6,0.05c1.07,10.35,8.12,15.52,16.81,15.52c6.47,0,12.11-2.95,14.34-8.13h17.39
			c-4.8,15.28-17.72,22-31.6,22.01c-20.21,0-34.09-14.32-34.1-33.62c-0.02-19.41,13.96-33.89,33.7-33.91
			c21.39-0.02,34.69,16.8,33.05,38.1L677.48,315.18z M628.68,302.87h30.91c-1.89-7.09-7.18-11.9-15.3-11.9
			C636.08,290.98,630.79,295.92,628.68,302.87z"/>
		<path class="st1" d="M733.7,277.25v17.3c-1.27-0.13-2.22-0.24-4.09-0.24c-10.71,0-19.86,4.73-19.85,20.01v28.82h-16.78l-0.05-64.7
			h16.81v11.28c4-8.48,11.05-12.72,20.21-12.73c1.53,0,2.71,0.13,3.76,0.24"/>
		<path class="st2" d="M127.05,248.92H107.7v18.42h19.34V248.92z"/>
		<path class="st3" d="M127.05,285.68H107.7v58.05h19.34V285.68z"/>
		<path class="st4" d="M160.26,248.92h-14.89v18.42h14.89c17.05,0,29.09,11.93,29.09,28.99c0,17.06-12.04,28.99-29.09,28.99h-14.89
			v18.42h14.89c27.61,0,48.45-20.33,48.45-47.41C208.7,269.25,187.85,248.92,160.26,248.92z"/>
	</g>
</g>
</svg>
